#!OML:ASF G:\JayActor3\Patient Classification 1\Patient 1\Session 6\male.ASF
:FULLY-SPECIFIED
:DEGREES
2871
root 2.12293 16.5271 -22.3621 -2.71221 -144.622 9.72647
lowerback 0.677975 -0.0684158 -0.831718
upperback 3.77452 -0.1912 0.320209
thorax 3.50111 -0.170388 0.787864
lowerneck -2.96604 -4.80677 -2.32379
upperneck 3.2996 -6.88978 9.2004
head 2.02979 -3.3612 3.19712
rclavicle 7.35503e-015 -2.06736e-014
rhumerus -37.0216 0.701894 -84.9814
rradius 29.6594
rwrist -0.863705
rhand -18.2088 -9.61379
rfingers 7.12502
rthumb 8.06879 -39.4398
lclavicle 7.35503e-015 -2.06736e-014
lhumerus -28.3719 4.69932 73.8241
lradius 38.823
lwrist 32.6732
lhand -13.3915 7.74904
lfingers 7.12502
lthumb 12.7158 37.3419
rfemur -14.7138 6.68498 13.8503
rtibia 44.2762
rfoot -7.17558 -12.1617
rtoes -2.67044
lfemur -11.6709 11.5509 -14.6641
ltibia 27.7969
lfoot -19.1127 16.7976
ltoes -3.96458
2872
root 2.14731 16.5237 -22.3738 -2.67229 -144.669 9.64517
lowerback 0.638048 -0.0799476 -0.85796
upperback 3.76852 -0.204629 0.301672
thorax 3.51775 -0.17731 0.78309
lowerneck -3.08024 -4.80535 -2.3585
upperneck 3.51024 -6.90033 9.15973
head 2.1203 -3.35926 3.18619
rclavicle -2.38542e-014 1.59028e-015
rhumerus -37.2458 -0.943041 -84.3504
rradius 28.1488
rwrist 0.41162
rhand -17.8031 -9.46387
rfingers 7.12502
rthumb 8.4604 -39.2744
lclavicle -2.38542e-014 1.59028e-015
lhumerus -28.3584 4.67582 73.8702
lradius 38.8285
lwrist 32.6781
lhand -13.4019 7.72984
lfingers 7.12502
lthumb 12.7057 37.3233
rfemur -14.6489 6.78019 13.8709
rtibia 44.1751
rfoot -7.2062 -11.9493
rtoes -3.0875
lfemur -11.6987 11.5503 -14.6264
ltibia 27.8576
lfoot -19.1378 16.7966
ltoes -3.92076
2873
root 2.17243 16.5202 -22.3858 -2.62833 -144.73 9.56971
lowerback 0.591429 -0.091104 -0.87662
upperback 3.75975 -0.217506 0.286629
thorax 3.53529 -0.183695 0.777649
lowerneck -3.1857 -4.80161 -2.3896
upperneck 3.71858 -6.9071 9.11223
head 2.20798 -3.35589 3.17271
rclavicle 8.46823e-014 -1.90833e-014
rhumerus -37.4991 -2.57656 -83.6665
rradius 26.7252
rwrist 1.67492
rhand -17.4217 -9.3891
rfingers 7.12502
rthumb 8.82845 -39.1844
lclavicle 8.46823e-014 -1.90833e-014
lhumerus -28.3629 4.67025 73.9136
lradius 38.8313
lwrist 32.6786
lhand -13.4135 7.70919
lfingers 7.12502
lthumb 12.6946 37.3033
rfemur -14.5924 6.89611 13.9012
rtibia 44.0621
rfoot -7.2072 -11.7604
rtoes -3.49915
lfemur -11.738 11.5554 -14.5805
ltibia 27.926
lfoot -19.1626 16.8039
ltoes -3.89667
2874
root 2.19839 16.5165 -22.398 -2.59005 -144.789 9.50172
lowerback 0.546508 -0.105282 -0.88632
upperback 3.7506 -0.234612 0.273619
thorax 3.55151 -0.191939 0.769161
lowerneck -3.28652 -4.79542 -2.41337
upperneck 3.92923 -6.91073 9.05925
head 2.29501 -3.35121 3.1563
rclavicle 1.47101e-014 -2.8625e-014
rhumerus -37.7991 -4.15128 -82.9504
rradius 25.4238
rwrist 2.88545
rhand -17.0462 -9.35958
rfingers 7.12502
rthumb 9.19081 -39.1393
lclavicle 1.47101e-014 -2.8625e-014
lhumerus -28.3825 4.67341 73.9537
lradius 38.8272
lwrist 32.6744
lhand -13.4256 7.68522
lfingers 7.12502
lthumb 12.683 37.2801
rfemur -14.5312 7.01942 13.9447
rtibia 43.9409
rfoot -7.21237 -11.6029
rtoes -3.94842
lfemur -11.7817 11.5729 -14.5225
ltibia 28.0017
lfoot -19.1869 16.7941
ltoes -3.87559
2875
root 2.22529 16.5126 -22.4106 -2.55575 -144.844 9.43599
lowerback 0.505351 -0.123016 -0.891987
upperback 3.74111 -0.256583 0.260924
thorax 3.56535 -0.202486 0.758604
lowerneck -3.38309 -4.78668 -2.42658
upperneck 4.14016 -6.91114 9.00068
head 2.38062 -3.3452 3.13633
rclavicle -1.0476e-013 3.81667e-014
rhumerus -38.1434 -5.64243 -82.2205
rradius 24.2456
rwrist 4.0257
rhand -16.6729 -9.38167
rfingers 7.12502
rthumb 9.55095 -39.1452
lclavicle -1.0476e-013 3.81667e-014
lhumerus -28.4181 4.68794 73.9878
lradius 38.8166
lwrist 32.6673
lhand -13.4314 7.66371
lfingers 7.12502
lthumb 12.6773 37.2589
rfemur -14.4653 7.14637 13.9972
rtibia 43.8153
rfoot -7.25063 -11.4908
rtoes -4.48715
lfemur -11.8289 11.6162 -14.4556
ltibia 28.085
lfoot -19.2026 16.7588
ltoes -3.88603
2876
root 2.25314 16.5083 -22.4234 -2.52284 -144.897 9.36622
lowerback 0.469982 -0.142101 -0.895967
upperback 3.73166 -0.280379 0.244431
thorax 3.57595 -0.213833 0.743144
lowerneck -3.4706 -4.77829 -2.43064
upperneck 4.34855 -6.91296 8.94608
head 2.46385 -3.34029 3.11627
rclavicle 4.27387e-014 -3.81667e-014
rhumerus -38.5332 -7.01622 -81.5045
rradius 23.2052
rwrist 5.06684
rhand -16.2923 -9.45455
rfingers 7.12502
rthumb 9.91818 -39.2009
lclavicle 4.27387e-014 -3.81667e-014
lhumerus -28.4646 4.69939 74.0156
lradius 38.7963
lwrist 32.6648
lhand -13.4298 7.65108
lfingers 7.12502
lthumb 12.6788 37.2462
rfemur -14.3946 7.27098 14.051
rtibia 43.6904
rfoot -7.34544 -11.4228
rtoes -5.11601
lfemur -11.8752 11.683 -14.3858
ltibia 28.1699
lfoot -19.212 16.6976
ltoes -3.91458
2877
root 2.28182 16.5038 -22.4365 -2.49094 -144.947 9.29568
lowerback 0.434554 -0.161957 -0.893072
upperback 3.7236 -0.305276 0.224508
thorax 3.58798 -0.225496 0.720247
lowerneck -3.54991 -4.77122 -2.42787
upperneck 4.55206 -6.91711 8.89524
head 2.5442 -3.33693 3.09638
rclavicle -1.72943e-014 9.54166e-015
rhumerus -38.9323 -8.41371 -80.7311
rradius 22.225
rwrist 6.16015
rhand -15.8621 -9.45416
rfingers 7.12502
rthumb 10.3332 -39.1803
lclavicle -1.72943e-014 9.54166e-015
lhumerus -28.52 4.71419 74.0372
lradius 38.7672
lwrist 32.6584
lhand -13.4179 7.6489
lfingers 7.12502
lthumb 12.6903 37.2433
rfemur -14.324 7.39002 14.1078
rtibia 43.5695
rfoot -7.49667 -11.406
rtoes -5.77935
lfemur -11.9194 11.7598 -14.3115
ltibia 28.2519
lfoot -19.2153 16.6226
ltoes -3.9529
2878
root 2.31074 16.499 -22.4501 -2.45137 -144.999 9.19632
lowerback 0.396435 -0.182772 -0.903742
upperback 3.72107 -0.331203 0.196617
thorax 3.6073 -0.238121 0.696662
lowerneck -3.625 -4.76414 -2.4255
upperneck 4.75585 -6.92195 8.85003
head 2.62444 -3.33412 3.07865
rclavicle 6.14245e-014 -3.65764e-014
rhumerus -39.3499 -9.79376 -79.9202
rradius 21.332
rwrist 7.28291
rhand -15.3729 -9.36047
rfingers 7.12502
rthumb 10.805 -39.0625
lclavicle 6.14245e-014 -3.65764e-014
lhumerus -28.5888 4.7356 74.0557
lradius 38.7322
lwrist 32.6504
lhand -13.4075 7.64338
lfingers 7.12502
lthumb 12.7003 37.2372
rfemur -14.2438 7.49637 14.1384
rtibia 43.4562
rfoot -7.69937 -11.4164
rtoes -6.47292
lfemur -11.9447 11.8512 -14.2585
ltibia 28.3242
lfoot -19.2121 16.5393
ltoes -4.01269
2879
root 2.34014 16.4941 -22.4643 -2.41059 -145.046 9.08841
lowerback 0.355813 -0.206554 -0.914711
upperback 3.72072 -0.361093 0.167629
thorax 3.63035 -0.252775 0.671949
lowerneck -3.69084 -4.75986 -2.43638
upperneck 4.94987 -6.93066 8.82272
head 2.70171 -3.33377 3.06963
rclavicle -6.67916e-014 4.6118e-014
rhumerus -39.7855 -11.1627 -79.0642
rradius 20.518
rwrist 8.45612
rhand -14.8258 -9.19005
rfingers 7.12502
rthumb 11.3328 -38.8639
lclavicle -6.67916e-014 4.6118e-014
lhumerus -28.67 4.75807 74.076
lradius 38.6883
lwrist 32.6417
lhand -13.4008 7.64892
lfingers 7.12502
lthumb 12.7068 37.2423
rfemur -14.157 7.58867 14.1614
rtibia 43.35
rfoot -7.94142 -11.4465
rtoes -7.06435
lfemur -11.9596 11.952 -14.2095
ltibia 28.3843
lfoot -19.1979 16.445
ltoes -4.07964
2880
root 2.36993 16.4893 -22.4787 -2.36595 -145.081 8.95995
lowerback 0.318834 -0.235359 -0.934647
upperback 3.72388 -0.397601 0.133709
thorax 3.65513 -0.271035 0.646956
lowerneck -3.75311 -4.7566 -2.45415
upperneck 5.13942 -6.94093 8.80499
head 2.77796 -3.33448 3.06526
rclavicle -9.0447e-014 -1.74931e-014
rhumerus -40.2438 -12.4858 -78.1898
rradius 19.8091
rwrist 9.62095
rhand -14.2315 -8.92789
rfingers 7.12502
rthumb 11.9059 -38.5694
lclavicle -9.0447e-014 -1.74931e-014
lhumerus -28.7614 4.78449 74.0977
lradius 38.6328
lwrist 32.625
lhand -13.4079 7.64048
lfingers 7.12502
lthumb 12.6999 37.2343
rfemur -14.0583 7.65761 14.1651
rtibia 43.2519
rfoot -8.2039 -11.4844
rtoes -7.64407
lfemur -11.9601 12.0548 -14.1767
ltibia 28.4296
lfoot -19.1709 16.3418
ltoes -4.14854
2881
root 2.40032 16.4848 -22.4932 -2.31694 -145.11 8.82325
lowerback 0.282503 -0.266571 -0.952498
upperback 3.72796 -0.437315 0.0969919
thorax 3.68049 -0.290811 0.617773
lowerneck -3.80956 -4.75563 -2.47015
upperneck 5.31912 -6.95379 8.78851
head 2.85015 -3.33686 3.06103
rclavicle -2.74323e-014 4.45278e-014
rhumerus -40.7216 -13.6625 -77.3714
rradius 19.2312
rwrist 10.6699
rhand -13.6445 -8.64449
rfingers 7.12502
rthumb 12.4719 -38.2523
lclavicle -2.74323e-014 4.45278e-014
lhumerus -28.8568 4.8077 74.1208
lradius 38.5599
lwrist 32.6056
lhand -13.4199 7.63589
lfingers 7.12502
lthumb 12.6884 37.2304
rfemur -13.9585 7.70983 14.1605
rtibia 43.1598
rfoot -8.47269 -11.5199
rtoes -8.19545
lfemur -11.9569 12.1549 -14.1508
ltibia 28.4636
lfoot -19.1326 16.2414
ltoes -4.22243
2882
root 2.43169 16.4806 -22.5076 -2.26453 -145.136 8.68308
lowerback 0.250668 -0.297339 -0.967502
upperback 3.73192 -0.476513 0.0584433
thorax 3.70312 -0.310217 0.585108
lowerneck -3.86565 -4.75638 -2.48074
upperneck 5.48912 -6.96873 8.77327
head 2.91912 -3.34045 3.05616
rclavicle -1.05356e-014 -1.27222e-014
rhumerus -41.202 -14.6275 -76.6763
rradius 18.8013
rwrist 11.5282
rhand -13.1609 -8.52607
rfingers 7.12502
rthumb 12.9381 -38.105
lclavicle -1.05356e-014 -1.27222e-014
lhumerus -28.9521 4.8254 74.1462
lradius 38.4667
lwrist 32.5803
lhand -13.4362 7.6267
lfingers 7.12502
lthumb 12.6727 37.2222
rfemur -13.8618 7.75366 14.1539
rtibia 43.0719
rfoot -8.74796 -11.5412
rtoes -8.70222
lfemur -11.9553 12.2459 -14.1275
ltibia 28.4897
lfoot -19.0837 16.151
ltoes -4.3013
